<svg width="16" height="16" viewBox="0 0 14 15" fill="#FFFFFF" xmlns="http://www.w3.org/2000/svg">
    <path d="M2.48976 0.5C2.07758 0.5 1.69469 0.704668 1.46596 1.04794L0.344453 2.73024C0.296547 2.80199 0.273551 2.88459 0.235352 2.96096H6.58982V0.5H2.48976Z" fill="#FFFFFF"/>
    <path d="M13.6555 2.73021L12.534 1.04794C12.3053 0.704668 11.8951 0.5 11.4829 0.5H7.41016V2.96094H13.7646C13.7264 2.88459 13.7034 2.80199 13.6555 2.73021Z" fill="#FFFFFF"/>
    <path d="M13.9872 3.78125H0.0127695C0.0115117 3.8107 0 3.83818 0 3.86777V13.2695C0 13.948 0.551961 14.5 1.23047 14.5H12.7695C13.448 14.5 14 13.948 14 13.2695V3.86777C14 3.83818 13.9885 3.8107 13.9872 3.78125ZM8.64062 7.88281H5.35938C4.68087 7.88281 4.12891 7.33085 4.12891 6.65234C4.12891 5.97384 4.68087 5.42188 5.35938 5.42188H8.64062C9.31913 5.42188 9.87109 5.97384 9.87109 6.65234C9.87109 7.33085 9.31913 7.88281 8.64062 7.88281Z" fill="#FFFFFF"/>
</svg>