<svg width="24" height="24" viewBox="0 0 14 14" fill="none" xmlns="http://www.w3.org/2000/svg">
<path fill-rule="evenodd" clip-rule="evenodd" d="M0 7C0 3.1402 3.1402 0 7 0C10.8598 0 14 3.1402 14 7C14 10.8598 10.8598 14 7 14C3.1402 14 0 10.8598 0 7ZM5.39497 4.40503C5.12161 4.13166 4.67839 4.13166 4.40503 4.40503C4.13166 4.67839 4.13166 5.12161 4.40503 5.39497L6.01005 7L4.40503 8.60503C4.13166 8.87839 4.13166 9.32161 4.40503 9.59497C4.67839 9.86834 5.12161 9.86834 5.39497 9.59497L7 7.98995L8.60503 9.59497C8.87839 9.86834 9.32161 9.86834 9.59497 9.59497C9.86834 9.32161 9.86834 8.87839 9.59497 8.60503L7.98995 7L9.59497 5.39497C9.86834 5.12161 9.86834 4.67839 9.59497 4.40503C9.32161 4.13166 8.87839 4.13166 8.60503 4.40503L7 6.01005L5.39497 4.40503Z" fill="#FB535A"/>
</svg>
